<svg xmlns="http://www.w3.org/2000/svg" width="164.262" height="32.681" viewBox="0 0 164.262 32.681"><defs><style>.a,.b{fill:#1b2031;}.b{stroke:#fff;stroke-miterlimit:10;stroke-width:1.5px;}</style></defs><g transform="translate(-235 -166.418)"><path class="a" d="M236.476,199.1,235,185.193v-.05l.941-17.577,7.657-1.148h.069l17.39,1.112-4.575,13.995,11.454,14.067-21.832-.55Zm-.189-13.939,1.282,12.086,8.294-3.49,19.318.489L255.047,181.8l4.278-13.087-15.67-1-6.487.972Z"/><rect class="a" width="31.798" height="1.284" transform="translate(236.385 198.036) rotate(-77.993)"/><rect class="a" width="1.284" height="23.502" transform="matrix(0.576, -0.817, 0.817, 0.576, 236.186, 168.647)"/><rect class="a" width="1.284" height="13.857" transform="translate(235.217 185.656) rotate(-48.243)"/><path class="b" d="M260.192,168.123"/><rect class="a" width="1.283" height="28.117" transform="matrix(0.233, -0.972, 0.972, 0.233, 239.057, 188.979)"/><rect class="a" width="28.834" height="1.283" transform="translate(238.767 187.418) rotate(-43.299)"/></g><g transform="translate(-235 -165.418)"><path class="a" d="M284.762,182.9l-2.884,2.74v4.568h-1.855V170.227h1.855v13.1l7.594-7.394h2.541l-5.938,5.681,6.223,8.593h-2.312Z"/><path class="a" d="M294.208,183.074c0-4.425,2.884-7.422,6.566-7.422s6.566,3,6.566,7.422-2.883,7.422-6.566,7.422S294.208,187.5,294.208,183.074Zm6.709,5.852c2.569,0,4.539-2.2,4.539-5.852s-1.97-5.852-4.539-5.852h-.286c-2.569,0-4.539,2.2-4.539,5.852s1.97,5.852,4.539,5.852Z"/><path class="a" d="M310.677,175.937h1.855v2.4a5.474,5.474,0,0,1,5-2.683c2.855,0,5,1.8,5,5.224v9.335h-1.856v-8.764c0-2.855-1.141-4.225-3.425-4.225h-.172c-3.083,0-4.539,2.769-4.539,5.852v7.137h-1.855Z"/><path class="a" d="M325.352,185.929h1.855c.2,1.969,1.713,3,3.683,3h.285c2,0,3.226-1,3.226-2.569,0-1.114-.6-1.77-2.512-2.2L329.8,183.7c-2.113-.457-3.882-1.428-3.882-3.854,0-2.712,2.4-4.2,5.11-4.2,3.568,0,5.224,2.226,5.367,4.567h-1.856a3.3,3.3,0,0,0-3.369-3h-.285c-2,0-3.112,1.2-3.112,2.455,0,1.285.771,1.884,2.6,2.284l2.227.485c2.027.428,3.654,1.342,3.654,3.768,0,2.712-2.084,4.282-5.224,4.282C327.35,190.5,325.494,188.555,325.352,185.929Z"/><path class="a" d="M350.525,175.937h1.713v3.255a4.455,4.455,0,0,1,4.424-3.4h1.285v1.713H356.8c-2.74,0-4.425,2.17-4.425,5.767v6.937h-1.855Z"/><path class="a" d="M360.6,185.358v-9.421h1.855v8.85c0,2.74,1.142,4.139,3.426,4.139h.286c2.083,0,4.139-1.97,4.139-5.281v-7.708h1.855v14.274h-1.855v-2.684a4.752,4.752,0,0,1-4.768,2.969C362.371,190.5,360.6,188.355,360.6,185.358Z"/><path class="a" d="M380.954,182.9l-2.883,2.74v4.568h-1.856V170.227h1.856v13.1l7.593-7.394H388.2l-5.938,5.681,6.224,8.593h-2.313Z"/><path class="a" d="M341.791,187.5v-9.992h-3.283v-1.57h3.283v-4.625h1.855v4.625h3.569v1.57h-3.569v11.134h4v1.57H344.5A2.712,2.712,0,0,1,341.791,187.5Z"/><path class="a" d="M341.791,187.642v.755a1.814,1.814,0,0,0,1.814,1.814h.9"/><path class="a" d="M393.41,187.5v-9.992h-3.283v-1.57h3.283v-4.625h1.855v4.625h3.569v1.57h-3.569v11.134h4v1.57h-3.14A2.712,2.712,0,0,1,393.41,187.5Z"/><path class="a" d="M393.41,187.642v.755a1.814,1.814,0,0,0,1.814,1.814h.9"/></g></svg>