<svg xmlns="http://www.w3.org/2000/svg" id="svg46" version="1.1" viewBox="0 0 32.94 32.68"><defs id="defs4"/><g id="g20" transform="translate(-235 -166.42)"><path id="path6" d="M236.48 199.1L235 185.2v-.06l.94-17.57 7.66-1.15h.07l17.39 1.11-4.58 14 11.46 14.06-21.84-.55zm-.2-13.94l1.29 12.09 8.3-3.5 19.31.5-10.13-12.45 4.28-13.09-15.67-1-6.5.98z" class="a" fill="#1b2031"/><path id="rect8" transform="rotate(-78 240.48 -46.96)" class="a" fill="#1b2031" d="M0 0h31.8v1.28H0z"/><path id="rect10" transform="rotate(-54.82 280.82 -143.48)" class="a" fill="#1b2031" d="M0 0h1.28v23.5H0z"/><path id="rect12" transform="rotate(-48.24 324.92 -169.82)" class="a" fill="#1b2031" d="M0 0h1.28v13.86H0z"/><path id="rect16" transform="rotate(-76.52 239.46 -57.1)" class="a" fill="#1b2031" d="M0 0h1.28v28.12H0z"/><path id="rect18" transform="rotate(-43.3 355.47 -207.06)" class="a" fill="#1b2031" d="M0 0h28.83v1.28H0z"/></g></svg>