<svg xmlns="http://www.w3.org/2000/svg" width="90" height="90" viewBox="0 0 90 90"><defs><style>.a{fill:#ff0018;}.b{fill:#fff;}.c{fill:none;stroke:#fff;stroke-miterlimit:10;stroke-width:1.5px;}</style></defs><g transform="translate(-0.132 -0.132)"><circle class="a" cx="45" cy="45" r="45" transform="translate(0.132 0.132)"/></g><g transform="translate(24.211 21.495)"><path class="b" d="M254.246,221.336l-2.212-20.84v-.075l1.41-26.341,11.474-1.72h.1l26.061,1.666L284.227,195l17.166,21.082-32.719-.825Zm-.284-20.89,1.922,18.112,12.429-5.229,28.952.732-15.188-18.648,6.412-19.612L265,174.3l-9.721,1.456Z" transform="translate(-252.034 -172.359)"/><g transform="translate(2.075 0.772)"><rect class="b" width="47.653" height="1.924" transform="translate(0 46.611) rotate(-77.993)"/></g><g transform="translate(1.777 1.767)"><rect class="b" width="1.924" height="35.221" transform="matrix(0.576, -0.817, 0.817, 0.576, 0, 1.573)"/></g><g transform="translate(0.325 27.395)"><rect class="b" width="1.924" height="20.767" transform="translate(0 1.436) rotate(-48.243)"/></g><g transform="translate(37.754 2.555)"><path class="c" d="M271.065,173.647" transform="translate(-271.065 -173.647)"/></g><g transform="translate(6.08 31.939)"><rect class="b" width="1.923" height="42.137" transform="matrix(0.233, -0.972, 0.972, 0.233, 0, 1.87)"/></g><g transform="translate(5.646 1.836)"><rect class="b" width="43.212" height="1.923" transform="translate(0 29.635) rotate(-43.299)"/></g></g></svg>